<svg xmlns="http://www.w3.org/2000/svg" xmlns:xlink="http://www.w3.org/1999/xlink" version="1.1" x="0px" y="0px" viewBox="0 0 100 125" enable-background="new 0 0 100 100" xml:space="preserve"><path d="M20.029,73.544c-10.095,0-18.309-8.213-18.309-18.309s8.214-18.309,18.309-18.309c10.096,0,18.309,8.213,18.309,18.309  S30.125,73.544,20.029,73.544z M20.029,38.59c-9.178,0-16.645,7.467-16.645,16.646c0,9.178,7.467,16.646,16.645,16.646  s16.645-7.468,16.645-16.646C36.674,46.057,29.207,38.59,20.029,38.59z"/><path d="M79.971,73.544c-10.094,0-18.309-8.213-18.309-18.309s8.215-18.309,18.309-18.309c10.096,0,18.309,8.213,18.309,18.309  S90.066,73.544,79.971,73.544z M79.971,38.59c-9.18,0-16.646,7.467-16.646,16.646c0,9.178,7.467,16.646,16.646,16.646  c9.178,0,16.645-7.468,16.645-16.646C96.615,46.057,89.148,38.59,79.971,38.59z"/><path d="M63.35,55.235h-1.662c0-6.442-5.242-11.683-11.684-11.683s-11.682,5.241-11.682,11.683h-1.663  c0-7.359,5.987-13.346,13.345-13.346C57.363,41.889,63.35,47.876,63.35,55.235z"/><circle cx="20.029" cy="55.235" r="2.783"/><circle cx="79.972" cy="55.235" r="2.782"/><polygon points="49.698,9.748 56.072,9.748 52.391,19.251 59.051,19.251 40.922,39.129 47.938,24.161 43.564,24.161 "/></svg>